# xmcd CD database file
#
# Track frame offsets:
#	150
#	24914
#	50817
#	66145
#	82308
#	111045
#	137608
#	173529
#	202569
#	230507
#	261904
#	297486
#	322507
#
# Disc length: 4789 seconds
#
# Revision: 5
# Processed by: cddbd v1.5.2PL0 Copyright (c) Steve Scherf et al.
# Submitted via: CDex 1.51
#
DISCID=ad12b30d
DTITLE=Gov't Mule - The Deep End Vol. 2
DYEAR=2002
DGENRE=Blues
TTITLE0=Trying Not To Fall
TTITLE1=Time To Confess
TTITLE2=Greasy Granny's Gopher Gravy, Part 1
TTITLE3=Greasy Granny's Gopher Gravy, Part 2
TTITLE4=What Is Hip?
TTITLE5=World Of Confusion
TTITLE6=Hammer And Nails
TTITLE7=Slow Happy Boys
TTITLE8=Sun Dance
TTITLE9=Lay Of The Sunflower
TTITLE10=Catfish Blues
TTITLE11=Which Way Do We Run?
TTITLE12=Babylon Turnpike
EXTD=YEAR: 2002
EXTT0=
EXTT1=
EXTT2=
EXTT3=
EXTT4=
EXTT5=
EXTT6=
EXTT7=
EXTT8=
EXTT9=
EXTT10=
EXTT11=
EXTT12=
PLAYORDER=
